# xmcd
#
# Track frame offsets: 
#        187
#        13129
#        25487
#        40819
#        53902
#        66994
#        79417
#        92039
#        104889
#        117682
#        129524
#        144854
#        158852
#        173584
#        183962
#        196507
#        209839
#        222069
#        236139
#        247739
#        260654
#        273214
#        287964
#        299344
#        312429
#        326887
#
# Disc length: 4552 seconds
#
# Revision: 0
# Processed by: cddbd v1.5.2PL0 Copyright (c) Steve Scherf et al.
# Submitted via: ExactAudioCopy v1.0b3
#
DISCID=9511c61a
DTITLE=Various Artist - Chess 50th Anniversary Collection [50's Blues Edition
DTITLE=]
DYEAR=1997
DGENRE=Blues
TTITLE0=Muddy Waters - Hoochie Coochie Man
TTITLE1=Muddy Waters - I Can't Be Satisfied
TTITLE2=Muddy Waters - Honey Bee
TTITLE3=Muddy Waters - I Just Want To Make Love To You
TTITLE4=Muddy Waters - Got My Mojo Workin'
TTITLE5=Little Walter - Juke
TTITLE6=Little Walter - Oh Baby
TTITLE7=Jimmy Rogers - That's Alright
TTITLE8=Jimmy Rogers - Walking By Myself
TTITLE9=Sonny Boy Williamson - Don't Start Me To Talkin'
TTITLE10=Sonny Boy Williamson - Cross My Heart
TTITLE11=Robert Nighthawk - Sweet Black Angel
TTITLE12=Robert Nighthawk - Annie Lee Blues
TTITLE13=Elmore James - Talk To Me Baby
TTITLE14=Elmore James - The Sun Is Shining
TTITLE15=Howlin' Wolf - Moanin' At Midnight
TTITLE16=Howlin' Wolf - How Many More Years
TTITLE17=Howlin' Wolf - Smokestack Lightnin'
TTITLE18=Howlin' Wolf - Top Of The World
TTITLE19=Howlin' Wolf - Evil
TTITLE20=John Lee Hooker - Mad Man Blues
TTITLE21=John Lee Hooker - Sugar Mama
TTITLE22=J.B. Lenor - Mama, What About Your Doughter
TTITLE23=J.B. Lenor - Eisenhower Blues
TTITLE24=Lowell Fulson - Reconsider Baby
TTITLE25=Eddie Boyd - Third Digree
EXTD=
EXTT0=
EXTT1=
EXTT2=
EXTT3=
EXTT4=
EXTT5=
EXTT6=
EXTT7=
EXTT8=
EXTT9=
EXTT10=
EXTT11=
EXTT12=
EXTT13=
EXTT14=
EXTT15=
EXTT16=
EXTT17=
EXTT18=
EXTT19=
EXTT20=
EXTT21=
EXTT22=
EXTT23=
EXTT24=
EXTT25=
PLAYORDER=
